# xmcd
#
# Track frame offsets: 
#        150
#        11230
#        32187
#        56187
#        78372
#        101675
#        121732
#        143458
#        164289
#        185737
#
# Disc length: 2708 seconds
#
# Revision: 0
# Processed by: cddbd v1.5.2PL0 Copyright (c) Steve Scherf et al.
# Submitted via: ExactAudioCopy v0.95b3
#
DISCID=820a920a
DTITLE=Rotted - Pestilent Tomb [DBR 023 CD]
DYEAR=2018
DGENRE=Death Metal
TTITLE0=To Die...
TTITLE1=Stench Of Death
TTITLE2=And Now I Rot
TTITLE3=Festering In Slime
TTITLE4=Pestilent Tomb
TTITLE5=Rotted Remains
TTITLE6=Diseased
TTITLE7=Beyond The Grave
TTITLE8=Undead Scourge
TTITLE9=Day Of Mourning
EXTD=
EXTT0=
EXTT1=
EXTT2=
EXTT3=
EXTT4=
EXTT5=
EXTT6=
EXTT7=
EXTT8=
EXTT9=
PLAYORDER=
